<?xml version="1.0" encoding="utf-8"?>
<!-- Generator: Adobe Illustrator 26.0.0, SVG Export Plug-In . SVG Version: 6.00 Build 0)  -->
<svg version="1.1" id="Layer_1" xmlns="http://www.w3.org/2000/svg" xmlns:xlink="http://www.w3.org/1999/xlink" x="0px" y="0px"
	 viewBox="0 0 289.9 51" style="enable-background:new 0 0 289.9 51;" xml:space="preserve">
<style type="text/css">
	.st0{fill:#1AB394;}
	.st1{fill:#C3B296;}
	.st2{fill:#D0C4AE;}
	.st3{fill:#FFFFFF;}
</style>
<g>
	<path class="st0" d="M0,38.8L7.7,2.4h8.7c2.7,0,4.8,0.4,6.4,1.2s2.8,1.9,3.6,3.4s1.1,3.2,1.1,5.1c0,2-0.4,3.8-1,5.4
		c-0.7,1.6-1.7,2.9-3.1,4s-3,1.9-5,2.4c-2,0.5-4.2,0.8-6.7,0.8H8l-3,14H0z M8.9,20.5h3.5c2.1,0,3.9-0.3,5.4-0.9s2.6-1.5,3.5-2.8
		c0.8-1.2,1.2-2.8,1.2-4.6c0-1.9-0.5-3.4-1.6-4.2c-1.1-0.9-2.7-1.3-4.9-1.3h-4L8.9,20.5z"/>
	<path class="st0" d="M37.4,39.3c-1.4,0-2.7-0.3-3.9-1.1c-1.1-0.7-2-1.8-2.7-3.2c-0.6-1.4-1-3.2-1-5.3c0-2,0.2-3.9,0.6-5.7
		c0.4-1.8,1-3.6,1.8-5.1c0.8-1.6,1.7-3,2.8-4.2c1.1-1.2,2.3-2.2,3.7-2.8c1.4-0.7,2.8-1,4.4-1c1.2,0,2.3,0.2,3.2,0.6
		c0.9,0.4,1.7,1,2.3,1.7c0.6,0.7,1.1,1.5,1.4,2.4h0.2l1.5-4.2h3.8l-5.8,27.4H46l0.7-4.9h-0.2c-0.7,1-1.5,1.8-2.5,2.6
		c-0.9,0.8-1.9,1.5-3,2S38.7,39.3,37.4,39.3z M39.2,35.2c1.2,0,2.4-0.5,3.6-1.4c1.2-0.9,2.2-2.1,3.1-3.6c0.9-1.5,1.6-3.2,2-5.1
		c0.2-0.9,0.4-1.7,0.5-2.5s0.1-1.5,0.1-2.3c0-1.6-0.4-2.9-1.2-3.9s-2-1.5-3.4-1.5c-1,0-2,0.3-2.9,0.8c-0.9,0.5-1.7,1.3-2.4,2.2
		s-1.4,2-1.9,3.3c-0.5,1.2-0.9,2.6-1.2,4S35,28.2,35,29.7c0,1.8,0.4,3.1,1.1,4.1C36.8,34.8,37.8,35.2,39.2,35.2z"/>
	<path class="st0" d="M55.5,51l8.4-39.6h4l-0.6,5.1h0.2c0.7-1,1.5-1.9,2.4-2.7c0.9-0.8,1.9-1.5,3-2c1.1-0.5,2.3-0.8,3.6-0.8
		c1.5,0,2.8,0.3,3.9,1c1.1,0.7,2,1.7,2.7,3.2s1,3.2,1,5.4c0,1.9-0.2,3.8-0.6,5.6c-0.4,1.8-1,3.5-1.7,5.1s-1.7,3-2.7,4.2
		c-1.1,1.2-2.3,2.2-3.7,2.8c-1.4,0.7-2.9,1-4.5,1c-1.2,0-2.3-0.2-3.2-0.7s-1.6-1-2.2-1.7s-1.1-1.5-1.5-2.3h-0.2
		c-0.1,0.8-0.2,1.7-0.3,2.7s-0.3,2-0.5,2.8L60.4,51C60.4,51,55.5,51,55.5,51z M70.1,35.2c1.1,0,2-0.3,2.9-0.8
		c0.9-0.6,1.7-1.3,2.4-2.3c0.7-1,1.3-2.1,1.8-3.3c0.5-1.2,0.9-2.6,1.2-4c0.3-1.4,0.4-2.9,0.4-4.3c0-1.8-0.4-3.2-1.1-4.1
		C77.1,15.5,76,15,74.6,15c-0.8,0-1.6,0.2-2.4,0.6c-0.8,0.4-1.5,0.9-2.2,1.7c-0.7,0.7-1.3,1.5-1.9,2.5c-0.6,0.9-1.1,2-1.5,3.1
		s-0.8,2.2-1,3.4s-0.4,2.4-0.4,3.6c0,1.6,0.4,2.9,1.2,3.9C67.2,34.7,68.5,35.2,70.1,35.2z"/>
	<path class="st0" d="M99,39.3c-2.1,0-3.9-0.4-5.4-1.2s-2.7-2-3.5-3.5c-0.8-1.5-1.2-3.4-1.2-5.6c0-2.2,0.3-4.4,1-6.6
		s1.6-4.1,2.8-5.8c1.2-1.7,2.7-3.1,4.5-4.1c1.7-1,3.7-1.5,5.9-1.5c2.7,0,4.7,0.6,6,1.8c1.4,1.2,2,2.8,2,4.8c0,1.4-0.3,2.7-1,3.9
		s-1.6,2.2-2.9,3c-1.3,0.9-3,1.5-5,2s-4.4,0.7-7.2,0.7h-1c0,0.3-0.1,0.6-0.1,0.9c0,0.3,0,0.6,0,0.9c0,2,0.5,3.6,1.5,4.7
		c1,1.2,2.5,1.7,4.5,1.7c1.3,0,2.6-0.2,3.8-0.5c1.2-0.4,2.4-0.9,3.8-1.5v4.1c-1.3,0.6-2.6,1.1-3.9,1.4
		C102.3,39.1,100.7,39.3,99,39.3z M94.6,23.3h0.8c2.1,0,3.9-0.2,5.6-0.6c1.6-0.4,2.9-1,3.9-1.8s1.4-1.9,1.4-3.1
		c0-0.9-0.3-1.6-0.9-2.2s-1.5-0.8-2.7-0.8c-1.1,0-2.2,0.3-3.2,1s-2,1.6-2.9,2.9C95.7,20,95.1,21.5,94.6,23.3z"/>
	<path class="st0" d="M113.9,38.8l5.8-27.4h4l-0.6,5.2h0.2c0.7-1,1.5-1.9,2.3-2.8c0.8-0.9,1.7-1.6,2.7-2.1c1-0.5,2.2-0.8,3.5-0.8
		c0.5,0,0.9,0,1.4,0.1c0.5,0.1,0.9,0.1,1.4,0.3l-1.1,4.6c-0.4-0.1-0.8-0.2-1.2-0.2c-0.4-0.1-0.9-0.1-1.3-0.1c-1.2,0-2.3,0.3-3.3,0.9
		c-1,0.6-1.9,1.4-2.8,2.4s-1.5,2.1-2.1,3.4s-1,2.6-1.3,4l-2.7,12.6H113.9z"/>
</g>
<g>
	<path class="st0" d="M136.2,38.8l7.7-36.4h9.7c2.3,0,4.2,0.3,5.9,0.9s2.9,1.5,3.8,2.7s1.3,2.8,1.3,4.7c0,1.7-0.3,3.1-1,4.4
		c-0.7,1.3-1.6,2.3-2.8,3.1c-1.2,0.8-2.7,1.4-4.3,1.7V20c1.7,0.5,3.1,1.3,4.1,2.5s1.6,2.8,1.6,4.8c0,2.6-0.6,4.7-1.8,6.4
		s-2.9,3-5,3.8c-2.1,0.8-4.5,1.3-7.2,1.3L136.2,38.8L136.2,38.8z M142.2,34.5h6.1c1.8,0,3.3-0.3,4.6-0.8s2.3-1.3,3-2.4
		c0.7-1.1,1.1-2.4,1.1-3.9c0-1.6-0.5-3-1.6-4s-2.7-1.5-5-1.5h-5.5L142.2,34.5z M145.8,17.7h5.6c1.5,0,2.9-0.2,4.1-0.7
		s2.2-1.1,2.9-2.1c0.7-0.9,1.1-2.1,1.1-3.6c0-1.5-0.5-2.7-1.5-3.5c-1-0.8-2.6-1.2-4.7-1.2h-5L145.8,17.7z"/>
	<path class="st0" d="M174.8,39.3c-1.4,0-2.7-0.3-3.7-0.8s-1.8-1.3-2.4-2.4s-0.8-2.3-0.8-3.8c0-0.7,0.1-1.4,0.1-2.2s0.2-1.5,0.4-2.4
		l3.5-16.3h5l-3.6,17c-0.1,0.7-0.2,1.3-0.3,1.8c-0.1,0.5-0.1,1-0.1,1.4c0,1.1,0.3,2,0.9,2.6s1.5,0.9,2.7,0.9c1.2,0,2.5-0.4,3.7-1.3
		s2.4-2.2,3.4-4c1.1-1.8,1.9-4,2.4-6.6l2.5-11.9h4.9l-5.8,27.4h-4l0.6-5.2h-0.2c-0.7,0.9-1.4,1.8-2.3,2.7c-0.9,0.9-1.9,1.6-3,2.2
		C177.6,39,176.3,39.3,174.8,39.3z"/>
	<path class="st0" d="M207.5,39.3c-2,0-3.8-0.4-5.3-1.1c-1.5-0.8-2.7-1.9-3.6-3.4s-1.3-3.4-1.3-5.7c0-2,0.2-3.8,0.6-5.6
		c0.4-1.8,1-3.5,1.8-5s1.8-2.9,3-4c1.2-1.1,2.5-2,4-2.6c1.5-0.6,3.1-0.9,4.9-0.9c1.3,0,2.6,0.1,3.8,0.4c1.2,0.2,2.3,0.6,3.3,1.1
		l-1.4,4c-0.8-0.3-1.6-0.6-2.5-0.9c-0.9-0.3-1.9-0.4-3-0.4c-1.4,0-2.7,0.4-3.9,1.1c-1.2,0.8-2.1,1.8-3,3.1c-0.8,1.3-1.5,2.8-1.9,4.5
		s-0.7,3.4-0.7,5.3c0,1.3,0.2,2.4,0.7,3.4c0.5,1,1.1,1.7,2,2.2c0.9,0.5,1.9,0.8,3.1,0.8c1.2,0,2.4-0.2,3.4-0.5
		c1.1-0.3,2.1-0.8,3.2-1.3v4.2c-1,0.5-2.1,0.9-3.3,1.2C210.3,39.2,209,39.3,207.5,39.3z"/>
	<path class="st0" d="M219.6,38.8l8.2-38.8h5l-3.5,16.2c-0.3,1.4-0.6,2.7-0.9,3.8c-0.3,1.1-0.5,2-0.8,2.8s-0.4,1.3-0.5,1.7h0.1
		l12.9-13.1h5.8l-12,11.9l7.3,15.5h-5.5l-5.6-12.4l-3.7,2.9l-2,9.5H219.6z"/>
	<path class="st0" d="M256.9,39.3c-2.1,0-3.9-0.4-5.4-1.2c-1.5-0.8-2.7-2-3.5-3.5s-1.2-3.4-1.2-5.6c0-2.2,0.3-4.4,1-6.6
		s1.6-4.1,2.8-5.8c1.2-1.7,2.7-3.1,4.5-4.1c1.7-1,3.7-1.5,5.9-1.5c2.7,0,4.7,0.6,6,1.8s2,2.8,2,4.8c0,1.4-0.3,2.7-1,3.9
		c-0.6,1.2-1.6,2.2-3,3c-1.3,0.9-3,1.5-5,2s-4.4,0.7-7.1,0.7h-1c0,0.3-0.1,0.6-0.1,0.9c0,0.3,0,0.6,0,0.9c0,2,0.5,3.6,1.5,4.7
		c1,1.2,2.5,1.7,4.5,1.7c1.3,0,2.6-0.2,3.8-0.5c1.2-0.4,2.5-0.9,3.8-1.5v4.1c-1.3,0.6-2.6,1.1-3.9,1.4
		C260.2,39.1,258.7,39.3,256.9,39.3z M252.6,23.3h0.8c2.1,0,3.9-0.2,5.5-0.6c1.6-0.4,2.9-1,3.9-1.8c1-0.8,1.4-1.9,1.4-3.1
		c0-0.9-0.3-1.6-0.9-2.2c-0.6-0.6-1.5-0.8-2.6-0.8c-1.1,0-2.2,0.3-3.2,1c-1.1,0.7-2,1.6-2.9,2.9C253.7,20,253,21.5,252.6,23.3z"/>
	<path class="st0" d="M279.9,39.3c-1.9,0-3.5-0.4-4.7-1.3c-1.2-0.9-1.8-2.4-1.8-4.6c0-0.5,0-1,0.1-1.6c0.1-0.6,0.2-1.2,0.3-1.8
		l3.1-14.8h-4.1l0.5-2.4l4.6-1.8l3.1-5.8h3.1l-1.3,6.2h7l-0.8,3.8h-7L278.8,30c-0.1,0.4-0.2,0.9-0.3,1.3c-0.1,0.5-0.1,0.9-0.1,1.3
		c0,0.8,0.2,1.4,0.6,1.9c0.4,0.5,1.1,0.7,2,0.7c0.6,0,1.3-0.1,1.8-0.2c0.6-0.1,1.2-0.3,1.9-0.5v3.8c-0.5,0.2-1.2,0.5-2.1,0.7
		C281.8,39.2,280.8,39.3,279.9,39.3z"/>
</g>
<g>
	<g>
		<path class="st1" d="M1241.7,146.7c-6,0.4-12.1,0.9-18.1,1.3c4.2-5,8.4-10,12.7-14.9c3.2-0.4,6.4-0.8,9.7-1.3
			C1244.6,136.7,1243.1,141.7,1241.7,146.7L1241.7,146.7z"/>
		<path class="st1" d="M1275.7,146.7c-5.5,0.4-11.1,0.9-16.6,1.3c-1.4-5-2.8-10-4.2-14.9c2.7-0.4,5.5-0.8,8.2-1.3
			C1267.2,136.7,1271.5,141.7,1275.7,146.7L1275.7,146.7z"/>
		<path class="st2" d="M1241.7,146.7c5.8,0.4,11.6,0.9,17.4,1.3c-1.4-5-2.8-10-4.2-14.9c-3-0.4-5.9-0.8-8.9-1.3
			C1244.6,136.7,1243.1,141.7,1241.7,146.7L1241.7,146.7z"/>
		<g>
			<path class="st1" d="M1252.8,140.1c0,0.6-0.9,1.1-2.1,1.1s-2.1-0.5-2.1-1.1s0.9-1.6,2.1-1.6
				C1251.9,138.5,1252.8,139.5,1252.8,140.1L1252.8,140.1z"/>
			<path class="st0" d="M1250.8,126.9c-3.7,0-6.7-3-6.7-6.7s3-6.7,6.7-6.7s6.7,3,6.7,6.7C1257.5,123.9,1254.5,126.9,1250.8,126.9
				L1250.8,126.9z M1250.8,111.7c-4.7,0-8.5,3.8-8.5,8.5s8.5,19.6,8.5,19.6s8.5-15,8.5-19.6C1259.2,115.5,1255.5,111.7,1250.8,111.7
				L1250.8,111.7z"/>
			<path class="st0" d="M1250.8,115.4c-2.6,0-4.8,2.1-4.8,4.8c0,2.6,2.1,4.8,4.8,4.8s4.8-2.1,4.8-4.8
				C1255.6,117.5,1253.4,115.4,1250.8,115.4L1250.8,115.4z"/>
			<path class="st3" d="M1250.8,117.1c-1.7,0-3.1,1.4-3.1,3.1c0,1.7,1.4,3.1,3.1,3.1c1.7,0,3.1-1.4,3.1-3.1
				C1253.9,118.5,1252.5,117.1,1250.8,117.1L1250.8,117.1z"/>
		</g>
	</g>
	<text transform="matrix(1 0 0 1 1096.8883 146.8298)" class="st0" style="font-family:'OpenSans-MediumItalic'; font-size:51px;">Paper</text>
	<text transform="matrix(1 0 0 1 1272.1344 146.8298)" class="st0" style="font-family:'OpenSans-MediumItalic'; font-size:51px;">Bucket</text>
</g>
</svg>
